<svg width="2160" height="2160" viewBox="0 0 2160 2160" fill="none" xmlns="http://www.w3.org/2000/svg">
<g clip-path="url(#clip0_2_2)">
<rect width="2160" height="2160" fill="#0F1923"/>
<path d="M1346.68 950.801C1375.84 956.443 1404.58 963.51 1432.9 972.369C1457.42 980.016 1481.41 988.98 1504.2 1000.9C1521.07 1009.71 1537.1 1019.78 1550.02 1034.12C1555.61 1040.34 1560.15 1047.15 1562.73 1055.16C1566.74 1067.66 1564.58 1079.42 1557.72 1090.39C1551.08 1100.99 1542.06 1109.27 1532.04 1116.54C1514.11 1129.46 1494.28 1138.85 1473.87 1147.03C1469.18 1148.92 1464.64 1151.3 1459.53 1152.14C1447.72 1146.23 1435.9 1146.23 1424.3 1152.46C1414.76 1157.57 1405.42 1163.11 1396.09 1168.54C1394.19 1169.65 1391.66 1170.07 1391.08 1172.76C1370.14 1178.03 1349 1182.36 1327.75 1185.94C1317.88 1187.63 1308.13 1189.74 1298.11 1190.48C1293.57 1177.88 1288.2 1165.64 1282.87 1153.35C1282.08 1151.46 1280.65 1149.71 1281.34 1147.45C1282.03 1145.39 1283.98 1144.71 1285.61 1143.76C1299.01 1136.06 1312.4 1128.41 1325.9 1120.87C1332.54 1117.18 1338.71 1113.01 1343.78 1107.21C1351.53 1098.3 1355.43 1088.28 1353.37 1076.31C1351.48 1065.13 1344.78 1057.27 1336.08 1050.89C1330.17 1046.57 1323.32 1044.51 1315.88 1044.46C1309.97 1044.35 1305.02 1046.94 1299.74 1048.78C1298.21 1047.41 1298.06 1045.35 1297.48 1043.56C1295.53 1037.5 1292.41 1032.06 1288.56 1027.05C1286.24 1024 1283.61 1021.2 1281.13 1018.25C1286.77 1005.8 1292.41 993.41 1298.06 980.965C1298.64 979.699 1298.95 978.328 1300.17 977.379C1303.54 976.852 1306.44 975.111 1309.34 973.477C1319.41 967.834 1329.54 962.139 1339.51 956.285C1341.98 954.861 1345.36 954.07 1346.68 950.801Z" fill="#1F2C37"/>
<path d="M1302.54 1222.65C1294.1 1226.55 1286.24 1231.45 1278.18 1236.04C1266.15 1242.84 1254.13 1249.7 1242.11 1256.55C1228.71 1264.2 1215.32 1271.79 1201.97 1279.44C1188.26 1287.25 1174.61 1295.1 1160.95 1302.91C1144.86 1312.14 1128.78 1321.42 1112.64 1330.59C1103.99 1335.5 1095.24 1340.3 1086.49 1345.15C1081.48 1340.14 1081.37 1340.09 1085.7 1334.71C1114.44 1298.74 1141.17 1261.25 1166.54 1222.86C1167.7 1221.12 1168.65 1219.17 1170.54 1218.06C1176.82 1217.79 1183.15 1217.64 1189.42 1217.16C1202.19 1216.21 1214.95 1215.32 1227.66 1214.05C1244.53 1212.36 1261.41 1210.31 1278.28 1208.36C1284.56 1207.62 1290.78 1206.77 1297.05 1205.98C1298.16 1211.73 1301.33 1216.9 1302.54 1222.65Z" fill="#1F2C37"/>
<path d="M1337.34 1339.72C1331.28 1341.35 1326.43 1345.25 1321.05 1348.15C1310.4 1353.96 1300.01 1360.12 1289.3 1365.82C1280.29 1370.62 1266.36 1368.77 1258.56 1361.07C1249.01 1351.58 1249.91 1333.13 1258.72 1325.9C1261.83 1323.37 1264.83 1320.79 1268.42 1318.83C1281.18 1311.82 1293.73 1304.44 1306.55 1297.48C1312.4 1294.31 1317.83 1290.3 1324.21 1288.25C1329.59 1305.12 1333.92 1322.31 1337.34 1339.72Z" fill="#1F2C37"/>
<path d="M1038.71 1284.03C1042.51 1283.4 1045.3 1280.87 1048.52 1279.07C1066.82 1268.74 1085.06 1258.19 1103.31 1247.7C1104.84 1246.8 1106.37 1245.96 1108.16 1245.85C1104.42 1252.81 1099.35 1258.93 1094.82 1265.31C1084.69 1279.39 1074.3 1293.31 1063.44 1306.81C1063.02 1307.34 1062.65 1307.97 1062.18 1308.5C1059.8 1311.19 1059.12 1311.29 1056.96 1308.45C1050.79 1300.32 1044.77 1292.15 1038.71 1284.03Z" fill="#1F2C37"/>
<path d="M1475.09 972.158C1498.61 981.545 1521.44 992.408 1541.74 1007.86C1545.43 1010.65 1549.07 1013.61 1552.45 1016.72L1558.83 1023.05C1561.89 1026.32 1564.68 1029.74 1567.27 1033.49C1576.28 1046.57 1580.08 1059.96 1578.55 1073.14C1578.66 1072.88 1578.76 1072.67 1578.87 1072.41C1582.08 1065.76 1587.09 1060.59 1593.37 1056.8C1600.7 1052.31 1608.24 1048.2 1615.68 1043.88C1630.55 1035.28 1645.47 1026.69 1660.34 1018.09C1672.95 1010.81 1685.6 1003.54 1698.21 996.311C1711.6 988.664 1725.1 981.07 1738.44 973.371C1755.32 963.668 1772.14 953.807 1789.01 944.051C1808.47 932.818 1828.14 921.955 1847.44 910.459C1858.78 903.709 1868.12 894.902 1872.86 881.93C1878.29 867.059 1872.12 849.656 1857.83 843.012C1847.44 838.16 1836.84 838.213 1825.98 840.533C1815.54 842.748 1806.05 847.072 1796.87 852.451C1782.79 860.678 1768.5 868.588 1754.31 876.656C1740.76 884.408 1727.21 892.16 1713.66 899.912C1699.95 907.77 1686.23 915.574 1672.52 923.432C1659.29 931.025 1646.05 938.619 1632.76 946.16C1625.75 950.115 1617.94 951.697 1610.09 952.488C1595.58 953.912 1582.35 950.959 1572.64 939.041C1568.06 933.451 1565.42 926.807 1565.95 919.582C1566.53 910.775 1570.17 903.129 1576.12 896.432C1582.61 889.207 1590.73 884.461 1599.01 879.82C1619.53 868.272 1640.09 856.934 1660.5 845.227C1674.63 837.106 1679.91 824.818 1677.06 810.738C1672.68 789.117 1649.58 779.098 1630.18 788.959C1620.95 793.652 1612.14 799.137 1603.12 804.252C1587.94 814.219 1573.75 823.289 1559.09 831.621C1535.68 844.752 1476.77 878.186 1458.84 888.363C1442.23 897.803 1425.73 907.348 1409.12 916.787C1397.41 923.432 1385.6 930.023 1373.84 936.615C1371.99 937.617 1370.14 938.619 1368.77 940.307C1376.74 943.102 1385.07 944.367 1393.19 946.371C1421.09 953.332 1448.51 961.506 1475.09 972.158Z" fill="#1F2C37"/>
<path d="M2193.59 826.506C2189.85 813.322 2172.45 802.617 2155.31 812.109C2149.61 815.273 2144.02 818.543 2138.38 821.76C2122.88 830.672 2107.32 839.584 2091.81 848.496C2078.26 856.301 2064.71 864.053 2051.16 871.805C2038.34 879.135 2025.58 886.465 2012.77 893.795C2000.11 901.02 1987.45 908.139 1974.85 915.363C1962.35 922.482 1949.85 929.654 1937.41 936.826C1921.9 945.738 1906.35 954.65 1890.84 963.615C1876.71 971.789 1862.58 979.963 1848.45 988.084C1832.47 997.26 1816.38 1006.28 1800.4 1015.45C1782.74 1025.58 1765.18 1035.81 1747.51 1045.99C1729.69 1056.22 1712.71 1067.5 1694.99 1077.84L1689.35 1081.58C1689.35 1081.58 1685.02 1084.43 1683.02 1085.59C1668.3 1094.13 1653.49 1102.52 1638.72 1111.01C1635.13 1113.06 1631.13 1113.75 1627.22 1114.65C1616.73 1117.07 1606.39 1117.07 1596.48 1112.01C1585.35 1106.31 1577.02 1090.28 1577.87 1077.89L1577.81 1078.15C1575.97 1086.64 1572.01 1095.03 1565.79 1103.15C1562.94 1106.84 1559.94 1110.32 1556.67 1113.59L1548.7 1120.97C1543.11 1125.72 1537.1 1130.04 1530.88 1134.11C1514.16 1144.92 1496.34 1153.56 1477.83 1160.84C1475.88 1161.58 1473.77 1162.05 1472.13 1163.53C1473.24 1168.12 1475.88 1172.13 1476.67 1176.93C1478.36 1187.26 1475.19 1195.8 1468.71 1203.61C1462.69 1210.89 1454.36 1214.74 1446.45 1219.22C1427.04 1230.19 1407.64 1241.1 1388.23 1251.97C1375.21 1259.24 1362.18 1266.42 1349.16 1273.69C1344.09 1276.49 1339.08 1279.44 1334.07 1282.29C1333.18 1282.82 1332.23 1283.34 1331.91 1284.45C1331.91 1285.29 1331.75 1286.24 1331.96 1287.04C1336.45 1302.75 1340.4 1318.57 1344.2 1334.44C1352.95 1330.7 1360.86 1325.43 1369.14 1320.84C1383.59 1312.87 1397.83 1304.6 1412.23 1296.47C1424.88 1289.3 1437.54 1282.08 1450.25 1274.96C1456.37 1271.53 1462.32 1267.79 1469.02 1265.47C1475.98 1263.04 1483 1261.93 1490.01 1264.99C1496.39 1267.79 1500.71 1272.53 1501.66 1279.49C1502.77 1287.51 1501.56 1295.21 1496.76 1302.12C1493.07 1307.39 1488.53 1311.61 1483.05 1314.93C1474.3 1320.15 1465.75 1325.64 1457.05 1330.96C1454.15 1332.76 1451.72 1335.02 1450.04 1337.92C1446.61 1343.78 1444.87 1349.95 1444.71 1356.91C1444.45 1371.94 1456.26 1386.44 1470.6 1390.24C1479.3 1392.56 1487.69 1391.66 1495.65 1387.55C1502.19 1384.17 1540.16 1360.18 1549.71 1354.59C1559.51 1349.05 1569.32 1343.46 1579.13 1337.98C1593.79 1329.7 1608.5 1321.52 1623.16 1313.19C1639.99 1303.7 1656.7 1294.05 1673.47 1284.56C1685.71 1277.65 1697.94 1270.79 1710.18 1263.88C1724.41 1255.87 1738.6 1247.8 1752.79 1239.79C1764.07 1233.35 1775.46 1227.13 1786.59 1220.43C1806.57 1208.41 1827.4 1197.91 1847.6 1186.26C1864 1176.82 1880.67 1167.75 1897.07 1158.26C1908.19 1151.77 1914.1 1141.7 1914.84 1128.94C1915.47 1117.49 1908.88 1100.99 1891.16 1095.08C1888.84 1094.29 1886.47 1093.55 1884.04 1093.24C1878.71 1092.5 1873.71 1093.08 1868.85 1095.98C1844.91 1110.32 1820.87 1124.46 1796.87 1138.64C1790.54 1142.38 1784.27 1146.29 1777.62 1149.45C1763.54 1156.15 1748.62 1151.14 1742.24 1135.53C1736.81 1122.24 1743.19 1109.11 1753.58 1103.52C1764.81 1097.4 1776.04 1091.18 1786.75 1084.17L1797.71 1078.1C1807.1 1072.67 1816.44 1067.19 1825.82 1061.75C1838.9 1054.21 1851.98 1046.67 1865.06 1039.18C1880.24 1030.43 1895.48 1021.73 1910.72 1012.97C1923.64 1005.54 1936.67 998.209 1949.48 990.563C1959.56 984.551 1970 979.172 1979.7 972.422C1985.98 968.045 1993.15 964.934 1999.9 961.084C2019.57 949.852 2039.24 938.619 2058.8 927.281C2079.95 915.1 2100.99 902.76 2122.08 890.525C2143.02 878.396 2164.06 866.32 2185.05 854.244C2186.26 853.559 2187.47 852.82 2188.37 851.713C2194.38 844.225 2196.23 835.734 2193.59 826.506Z" fill="#1F2C37"/>
<path d="M896.326 1397.78C896.221 1393.77 895.113 1389.87 895.219 1385.75C895.482 1377.26 898.646 1370.25 904.236 1363.92C909.826 1357.54 917.156 1353.8 924.275 1349.68C944.525 1338.03 964.828 1326.53 985.078 1314.98C999.422 1306.81 1013.71 1298.58 1028 1290.41C1029.53 1289.57 1031.27 1288.93 1031.59 1286.88C1033.86 1286.72 1034.96 1288.46 1036.07 1289.94C1041.66 1297.27 1047.15 1304.6 1052.63 1311.98C1053.9 1313.67 1055.06 1315.41 1054.53 1317.67C1036.86 1339.66 1018.35 1360.97 999 1381.48C987.451 1393.72 975.428 1405.48 963.193 1417.03C962.455 1417.71 961.559 1418.29 960.715 1418.92C952.119 1424.83 942.68 1427.89 932.133 1427.1C916.102 1425.94 904.658 1417.87 897.275 1403.79C896.379 1401.94 895.641 1399.99 896.326 1397.78Z" fill="#1F2C37"/>
<path d="M1185.15 1202.45C1185.47 1200.66 1186.95 1199.97 1188.32 1199.23C1213.84 1184.73 1239.31 1170.18 1264.83 1155.67C1267.68 1154.04 1270.27 1151.77 1273.69 1151.24C1275.59 1154.36 1276.96 1157.73 1278.39 1161.11C1282.61 1171.18 1286.88 1181.25 1291.15 1191.32C1285.88 1193.38 1280.18 1193.54 1274.64 1194.17C1255.87 1196.49 1237.04 1198.55 1218.22 1200.5C1208.99 1201.45 1199.71 1202.03 1190.43 1202.71C1188.63 1202.82 1186.89 1203.03 1185.15 1202.45Z" fill="#1F2C37"/>
<path d="M1341.51 1198.76C1341.19 1200.13 1340.09 1200.66 1339.03 1201.29C1329.91 1206.51 1320.73 1211.73 1311.61 1216.9C1310.87 1217.32 1309.92 1217.27 1309.08 1217.43C1306.86 1213.47 1305.54 1209.15 1304.23 1204.82C1316.62 1202.71 1329.01 1200.29 1341.51 1198.76Z" fill="#1F2C37"/>
<path d="M1157.62 1081.74C1158.68 1085.43 1160.95 1090.12 1163.11 1093.39C1170.18 1104.1 1181.09 1108.05 1193.91 1107.74C1187.1 1100.04 1184.63 1089.91 1181.57 1080L1184.84 1074.78C1183.1 1063.81 1176.03 1057.48 1178.93 1046.67C1177.14 1047.78 1175.24 1048.68 1173.6 1049.94C1165.96 1055.79 1157.94 1062.86 1157.62 1073.04V1081.74Z" fill="#1F2C37"/>
<path d="M772.084 1468.44C765.492 1470.18 760.113 1474.29 754.312 1477.46C742.025 1484.21 729.897 1491.28 717.715 1498.24C705.85 1504.99 694.09 1512 682.066 1518.54C671.783 1524.13 662.08 1531.25 650.162 1533.09C635.766 1535.36 621.897 1533.83 608.977 1526.4C596.742 1519.38 588.147 1509.36 583.4 1496.13C578.496 1482.52 578.654 1469.02 584.402 1455.63C590.098 1442.34 599.748 1432.85 612.299 1425.94C626.695 1417.97 640.934 1409.59 655.225 1401.47C667.459 1394.56 679.746 1387.76 691.928 1380.85C703.846 1374.1 715.658 1367.24 727.629 1360.6C734.221 1356.91 740.76 1353.16 746.93 1348.79C759.27 1339.98 769.5 1329.22 775.775 1315.3C784.74 1295.31 783.422 1275.86 770.396 1258.08C762.117 1246.8 750.621 1239.31 736.91 1235.57C726.311 1232.67 715.5 1231.45 704.637 1232.46C691.506 1233.62 678.533 1236.09 666.457 1241.47C659.918 1244.37 653.854 1248.38 647.578 1251.91C637.348 1257.66 627.117 1263.41 616.939 1269.26C606.604 1275.17 596.268 1281.18 585.932 1287.09C574.225 1293.79 562.465 1300.43 550.705 1307.13C539.578 1313.46 528.451 1319.84 517.324 1326.16C503.772 1333.92 490.219 1341.67 476.666 1349.37C465.697 1355.64 454.729 1361.87 443.76 1368.14C432.633 1374.47 421.559 1380.85 410.432 1387.23C396.721 1395.09 382.957 1402.73 369.352 1410.8C351 1421.72 331.91 1430.74 310.816 1435.06C304.963 1436.27 299.057 1436.54 293.098 1437.06C284.396 1437.8 276.012 1436.8 267.732 1434.69C253.811 1431.16 242.156 1423.99 234.088 1411.86C227.338 1401.68 223.805 1390.24 224.754 1377.95C225.65 1366.66 228.973 1355.96 234.826 1346.15C244.266 1330.17 257.713 1318.36 273.533 1309.18C297.158 1295.42 320.994 1281.92 344.672 1268.26C366.557 1255.66 388.336 1242.9 410.221 1230.29C432.896 1217.27 455.625 1204.4 478.301 1191.38C495.176 1181.67 511.945 1171.76 528.82 1162.05C546.592 1151.82 564.521 1141.75 582.24 1131.47C586.564 1128.94 591.363 1126.99 594.896 1123.19C597.217 1124.77 599.537 1126.35 601.857 1127.94C615.885 1137.59 630.703 1145.87 646.418 1152.35C646.84 1154.46 646.471 1156.57 646.102 1158.63C644.941 1165.32 645.416 1171.97 646.893 1178.46C652.43 1202.29 666.773 1218.59 690.24 1225.49C713.865 1232.4 734.906 1226.55 752.572 1209.2C758.162 1203.71 761.959 1197.02 765.545 1190.21C783.158 1194.28 800.824 1197.86 818.701 1200.6C819.018 1203.19 817.646 1205.35 816.803 1207.62C807.416 1232.24 798.768 1257.08 791.332 1282.39C778.781 1325.11 768.709 1368.3 767.285 1413.07C766.811 1428.05 767.654 1442.92 770.555 1457.63C771.24 1461.16 772.453 1464.7 772.084 1468.44Z" fill="#131F2A"/>
<path d="M1023.84 742.553C1020.2 740.021 1017.56 736.488 1014.56 733.271C995.309 712.811 975.164 693.299 953.49 675.422C952.436 674.525 951.539 673.418 950.537 672.469C955.863 670.728 961.453 670.043 966.674 667.881C975.639 664.189 984.024 659.443 992.408 654.697C1004.8 647.736 1017.14 640.67 1029.53 633.709C1041.29 627.064 1053.11 620.473 1064.87 613.828C1076.78 607.078 1088.65 600.275 1100.51 593.473C1115.91 584.719 1131.31 575.965 1146.76 567.264C1159 560.355 1171.28 553.605 1183.52 546.697C1197.86 538.576 1212.15 530.35 1226.5 522.229C1238.73 515.32 1250.96 508.465 1263.2 501.609C1271.64 496.863 1279.81 491.748 1288.46 487.529C1304.96 479.461 1321.37 480.568 1336.45 490.799C1348.1 498.709 1355.12 509.889 1356.28 524.496C1357.17 535.992 1354.69 546.486 1347.73 555.557C1342.35 562.57 1335.13 567.633 1327.32 571.904C1313.46 579.445 1299.8 587.355 1285.98 595.055C1272.48 602.596 1258.93 609.979 1245.48 617.52C1232.77 624.639 1220.12 631.863 1207.46 638.982C1196.6 645.047 1185.63 651.006 1174.76 657.07C1161.74 664.348 1148.77 671.73 1135.79 679.008C1125.67 684.65 1115.54 690.293 1105.47 695.936C1089.55 704.795 1073.57 713.654 1057.64 722.566C1047.25 728.367 1036.86 734.326 1026.47 740.18C1025.42 740.76 1024.31 741.287 1023.84 742.553Z" fill="#131F2A"/>
<path d="M1998.11 441.123C1995.68 422.613 1986.61 407.162 1971.84 395.719C1947.53 376.893 1921.01 375.311 1893.59 387.967C1880.03 394.19 1867.59 402.574 1854.62 409.957C1831.41 423.141 1808.26 436.324 1785.06 449.508C1773.19 456.258 1761.33 463.113 1749.46 469.916C1737.44 476.824 1725.42 483.732 1713.39 490.588C1699.21 498.656 1684.97 506.566 1670.78 514.688C1655.54 523.389 1640.46 532.301 1625.22 541.002C1609.24 550.178 1593.16 559.143 1577.18 568.318C1561.2 577.441 1545.28 586.775 1529.24 595.793L1517.59 602.438C1517.43 602.49 1517.22 602.543 1517.06 602.649C1516.27 603.018 1515.53 603.545 1514.79 603.967C1511.26 605.971 1507.73 608.027 1504.2 610.084H1504.14C1497.02 614.145 1489.96 618.258 1482.84 622.266C1466.86 631.389 1450.78 640.406 1434.8 649.529C1416.39 660.076 1398.04 670.729 1379.58 681.17C1376.42 682.963 1373.62 685.652 1369.78 686.127C1369.88 689.08 1369.88 692.086 1370.2 695.039C1371.25 705.744 1371.09 716.397 1370.46 727.102C1368.98 753.258 1364.55 778.939 1358.75 804.463C1354.54 822.92 1349.26 841.113 1343.99 859.254C1345.99 859.201 1347.63 858.305 1349.31 857.303C1374.1 843.064 1398.94 828.879 1423.72 814.746C1447.19 801.404 1470.66 788.063 1494.12 774.721C1500.08 771.346 1505.88 767.76 1511.84 764.438C1511.84 764.438 1521.86 758.795 1523.71 757.846C1524.18 757.582 1524.66 757.371 1525.13 757.107C1533.04 752.572 1541 748.09 1548.91 743.555C1564.73 734.484 1580.5 725.309 1596.37 716.291C1612.99 706.852 1629.7 697.518 1646.31 688.078C1662.29 678.955 1678.22 669.674 1694.2 660.551C1712.65 650.004 1731.16 639.615 1749.57 629.121C1770.45 617.203 1791.23 605.127 1812.11 593.209C1834.95 580.131 1857.83 567.158 1880.72 554.133C1892.16 547.647 1903.61 541.16 1915.05 534.674C1928.92 526.764 1942.79 518.854 1956.6 510.891C1967.1 504.826 1977.01 498.234 1984.87 488.531C1996.26 474.346 2000.43 458.473 1998.11 441.123Z" fill="#131F2A"/>
<path d="M1007.86 496.705C1005.01 477.774 995.572 462.639 979.277 452.039C959.133 438.908 938.197 438.065 916.787 448.242C908.561 452.145 900.861 457.102 892.951 461.637C881.191 468.281 869.485 474.979 857.725 481.676C846.598 488.004 835.471 494.385 824.344 500.66C812.742 507.252 801.141 513.791 789.539 520.383C778.412 526.711 767.338 533.145 756.211 539.473C744.609 546.065 732.955 552.551 721.406 559.143C707.537 567.053 693.721 575.016 679.852 582.926C668.883 589.201 658.02 595.635 646.945 601.647C646.471 601.91 645.996 602.174 645.627 602.438L634.764 608.66C628.752 611.93 622.793 615.252 616.834 618.68C593.526 632.022 570.322 645.469 547.014 658.758C523.863 671.994 500.66 685.125 477.457 698.309C465.592 705.059 453.727 711.967 441.809 718.717C430.207 725.309 418.553 731.795 406.951 738.334C395.772 744.609 384.645 750.938 373.518 757.266C359.965 765.018 346.465 772.875 332.912 780.574C318.727 788.643 304.436 796.553 290.303 804.674C275.221 813.27 260.297 822.129 245.215 830.725C224.174 842.748 203.08 854.613 182.039 866.584C170.121 873.334 158.256 880.19 146.391 886.94C132.996 894.586 119.549 902.18 106.102 909.826C94.2364 916.576 82.3184 923.379 70.4532 930.182C57.3223 937.67 44.2442 945.106 31.1133 952.594C16.5059 960.926 1.84575 969.258 -12.7617 977.59C-25.8925 985.078 -38.9707 992.567 -52.1015 1000C-63.8613 1006.65 -75.6738 1013.24 -87.3808 1019.94C-103.201 1028.95 -119.021 1038.13 -134.842 1047.2C-150.662 1056.27 -166.588 1065.18 -182.408 1074.25C-184.359 1075.36 -193.693 1082 -195.328 1084.48C-206.455 1095.66 -211.939 1109.43 -212.889 1125.09C-213.627 1137.9 -210.357 1149.87 -203.396 1160.53C-197.596 1169.38 -190.213 1176.82 -180.721 1182.04C-168.961 1188.47 -156.463 1190.9 -143.174 1190.16C-140.643 1190 -138.48 1189.58 -136.213 1188.26C-119.127 1178.19 -102.041 1168.22 -84.9023 1158.31C-65.9179 1147.34 -46.8808 1136.48 -27.9492 1125.51C-8.22653 1114.12 11.5489 1102.73 31.1661 1091.18C31.1661 1091.18 54.1055 1078.05 58.5352 1075.31C63.5977 1072.14 68.8184 1069.24 73.9336 1066.24C88.0664 1058.06 102.199 1049.89 116.279 1041.66C132.363 1032.33 148.395 1022.94 164.479 1013.55C178.875 1005.17 193.272 996.785 207.668 988.401C219.322 981.598 231.029 974.848 242.736 968.098C255.182 960.873 267.627 953.701 280.072 946.477C293.731 938.567 307.336 930.551 320.994 922.641C335.865 913.992 350.736 905.397 365.66 896.854C377.526 890.051 389.074 882.668 401.414 876.656C408.164 873.334 415.494 871.488 422.772 871.963C437.273 872.912 449.191 879.346 457.893 891.422C466.277 903.076 468.914 916.102 466.805 929.918C464.748 943.207 456.733 952.91 445.289 959.66C427.307 970.26 409.166 980.596 391.078 991.037C369.352 1003.64 347.678 1016.24 326.004 1028.85C301.746 1042.93 277.383 1056.9 253.178 1071.14C250.857 1072.51 242.684 1077.36 235.67 1081.58C234.299 1082.11 232.981 1082.74 231.662 1083.53C222.17 1089.18 212.625 1094.71 203.08 1100.25C188.367 1108.79 173.602 1117.23 158.889 1125.77C146.918 1132.73 134.947 1139.7 122.977 1146.66C108.264 1155.2 93.4981 1163.64 78.7852 1172.18C66.3399 1179.35 53.8419 1186.52 41.4493 1193.85C36.4922 1196.75 31.0079 1198.92 27.2637 1203.66C19.3008 1213.89 15.4512 1225.23 16.8223 1238.36C18.1407 1251.55 23.9942 1262.46 34.5411 1269.95C50.3086 1281.18 67.4473 1283.45 85.1133 1274.17C94.1309 1269.47 102.885 1264.31 111.744 1259.3C123.029 1252.92 134.367 1246.54 145.6 1240.1C159.311 1232.3 172.969 1224.39 186.68 1216.58C197.648 1210.31 208.617 1204.08 219.586 1197.81C233.297 1190 247.008 1182.15 260.666 1174.29C272.531 1167.49 284.449 1160.74 296.315 1153.93C306.387 1148.19 316.354 1142.38 326.426 1136.64C340.611 1128.57 354.85 1120.61 369.035 1112.54C382.904 1104.63 396.774 1096.77 410.537 1088.7C413.649 1086.86 417.024 1085.38 420.293 1083.11C424.512 1080.69 428.731 1078.26 429.627 1077.73C443.496 1069.77 457.418 1061.97 471.287 1054.11C483.785 1046.99 496.283 1039.87 508.781 1032.7C523.072 1024.52 537.416 1016.3 551.707 1008.12C565.26 1000.37 578.865 992.725 592.418 984.973C606.445 976.957 620.367 968.836 634.5 960.979C636.504 959.871 640.565 957.498 644.361 955.283C644.572 955.231 644.783 955.125 645.047 955.02C645.838 954.598 646.524 954.07 647.262 953.649C648.949 952.699 650.584 951.645 652.219 950.643C655.805 948.375 659.443 946.16 663.346 944.789C677.479 939.885 692.139 937.354 707.221 938.039C715.236 938.408 722.777 940.254 730.16 943.154C731.901 943.84 733.904 944.526 733.957 947.004C746.244 944.262 758.584 941.414 770.871 938.725C790.225 934.506 809.736 931.131 829.301 927.967C830.672 927.756 832.096 927.703 833.467 927.598C833.994 925.33 832.729 923.484 832.043 921.586C817.594 883.09 804.885 844.067 795.709 803.936C789.117 775.143 784.213 746.086 783.633 716.449C783.317 701.473 784.266 686.602 787.693 671.994C790.225 661.342 793.969 651.164 800.508 642.199C801.826 640.406 802.248 638.613 801.985 636.346C800.455 624.059 807.258 612.615 818.543 608.08C830.092 603.387 843.223 606.92 850.447 617.203C852.768 620.526 855.352 622.002 859.201 622.74C872.965 625.377 885.674 630.914 897.961 637.4C899.807 638.402 901.705 639.299 903.604 640.301C903.815 635.924 903.867 631.6 904.5 627.223C907.348 608.766 916.682 594.369 931.975 584.192C948.059 573.539 964.67 563.731 981.123 553.658C988.031 549.44 994.676 545.221 998.895 537.785C1006.33 524.813 1010.02 511.207 1007.86 496.705Z" fill="#131F2A"/>
<path d="M847.072 939.99C856.354 937.986 865.793 937.195 875.18 936.035C900.439 932.871 925.805 930.762 951.17 928.863C953.596 928.652 956.074 928.705 958.553 928.6C956.18 933.926 952.594 938.514 949.588 943.471C942.891 954.598 936.088 965.672 929.338 976.799C926.385 981.65 925.014 986.766 926.912 992.408C929.074 999 933.557 1003.17 940.359 1004.38C947.32 1005.64 953.227 1003.43 957.656 997.84C958.764 996.469 959.608 994.887 960.451 993.41C972.527 973.002 985.078 952.857 997.945 932.977C999.475 930.603 1000.74 928.125 1002.85 926.121C1022.15 925.805 1041.45 925.488 1060.75 925.225C1061.44 925.225 1062.18 925.225 1062.86 925.066C1066.45 924.328 1068.93 921.48 1068.98 918.158C1069.03 914.836 1066.61 911.777 1063.02 911.145C1061.12 910.775 1059.17 910.881 1057.27 910.934C1042.35 911.145 1027.42 911.408 1012.5 911.672C1015.45 906.082 1019.3 901.02 1022.89 895.852C1027.79 888.785 1032.38 881.561 1037.92 874.916C1041.93 874.494 1045.14 872.279 1048.46 870.381C1062.81 862.312 1077.05 854.033 1091.34 845.912C1092.87 845.016 1094.4 844.225 1094.92 842.326C1102.46 850.869 1108.69 860.467 1115.23 869.801C1137.16 900.967 1157.84 932.924 1177.45 965.566C1178.19 966.779 1178.72 968.045 1179.35 969.311C1172.23 982.758 1169.65 996.785 1173.29 1011.87C1175.34 1020.36 1178.77 1028.06 1183.31 1035.44C1181.72 1039.5 1180.14 1043.51 1178.56 1047.57C1159.73 1055.53 1154.83 1076.89 1164.11 1092.29C1170.7 1103.26 1181.04 1108 1193.75 1107.74C1194.06 1108.11 1194.38 1108.48 1194.64 1108.85C1176.87 1140.17 1158.26 1170.97 1138.59 1201.13C1137.43 1202.87 1136.58 1204.88 1134.63 1205.98C1132.89 1205.93 1131.1 1205.88 1129.36 1205.88C1115.65 1206.19 1101.99 1206.62 1088.28 1206.77C1055.43 1207.09 1022.57 1206.09 989.772 1204.72C987.662 1204.61 985.606 1204.19 983.496 1203.98C983.074 1203.19 982.758 1202.4 982.283 1201.66C956.391 1160.89 932.186 1119.08 909.826 1076.26C886.834 1031.8 865.582 986.555 847.072 939.99ZM1062.07 990.352C1022.41 990.193 990.193 1021.99 989.93 1061.65C989.666 1101.52 1021.73 1133.95 1061.54 1134.05C1101.2 1134.16 1133.47 1102.25 1133.74 1062.76C1134 1022.89 1101.99 990.51 1062.07 990.352Z" fill="#131F2A"/>
<path d="M968.15 913.887C954.492 913.887 940.887 915.363 927.281 916.418C902.496 918.422 877.764 921.059 853.137 924.486C849.393 925.014 845.648 925.646 841.852 926.227C833.994 906.873 827.191 887.098 820.811 867.217C810.105 833.783 801.035 799.875 795.603 765.123C791.859 741.34 789.539 717.398 791.807 693.299C793.02 680.115 795.445 667.248 801.246 655.172C801.773 654.064 802.301 652.957 802.934 651.902C804.885 648.527 805.307 647.051 809.104 651.164C816.803 659.654 826.717 661.975 837.475 658.441C848.285 654.855 854.297 646.787 855.826 635.555C856.723 629.121 856.67 629.121 863.051 630.861C878.977 635.133 893.479 642.516 907.506 651.006C908.086 651.375 908.561 651.902 909.088 652.377C909.035 654.592 909.879 656.543 911.303 658.125C913.043 660.076 914.889 661.975 916.84 663.768C922.693 669.252 929.707 672.047 937.723 672.311C946.898 678.586 955.072 685.969 963.352 693.299C981.229 709.119 998.156 725.994 1014.35 743.555C1015.03 744.346 1015.66 745.189 1016.3 746.033C1005.49 751.781 994.781 757.846 984.182 763.91C975.375 768.973 967.939 775.459 961.928 783.58C951.75 797.238 947.795 812.848 950.695 829.301C953.807 847.125 963.404 861.469 979.119 871.066C983.391 873.65 987.715 876.604 993.041 876.92C984.92 889.418 976.693 901.758 968.15 913.887Z" fill="#131F2A"/>
<path d="M1184.04 961.822C1178.19 953.701 1173.45 944.894 1168.12 936.404C1147.87 904.289 1126.78 872.807 1104.36 842.168C1103.62 841.166 1103.1 840.111 1102.46 839.057C1104.84 837.896 1107.32 836.947 1109.58 835.629C1117.34 831.146 1124.98 826.506 1132.73 822.076C1155.88 808.84 1179.04 795.709 1202.19 782.525C1213.89 775.828 1225.6 769.131 1237.31 762.434C1252.55 753.732 1267.73 745.031 1282.97 736.33C1294.84 729.527 1306.65 722.672 1318.62 716.027C1324.11 712.969 1329.17 709.119 1335.23 707.062C1335.97 718.822 1335.18 730.582 1333.81 742.289C1328.22 791.596 1314.56 838.898 1298.21 885.568C1298 886.201 1297.58 886.834 1297.27 887.414C1296.16 887.467 1295.31 888.047 1294.37 888.574C1282.97 895.113 1271.48 901.441 1260.14 908.139C1253.5 912.041 1246.48 915.311 1240.26 919.898C1238.52 919.793 1236.78 919.74 1235.04 919.582C1229.98 919.107 1224.97 918.316 1219.96 918.211C1213.79 918.053 1210.41 923.959 1213.52 929.021C1214.16 930.023 1215.21 930.762 1216.05 931.658C1215.37 934.4 1212.89 935.191 1210.83 936.404C1199.76 942.732 1191.27 951.592 1184.04 961.822Z" fill="#131F2A"/>
<path d="M614.355 1112.8C612.773 1113.7 611.402 1114.65 610.559 1116.33C611.35 1116.97 612.141 1117.71 612.984 1118.29C625.271 1126.3 638.033 1133.53 651.744 1138.96C652.219 1138.01 652.693 1137.11 653.221 1136.16C666.352 1112.48 691.875 1100.2 718.875 1104.68C744.135 1108.85 764.174 1128.99 769.131 1154.94C770.502 1162.11 770.027 1169.23 769.553 1176.4C787.799 1180.67 806.203 1184.15 824.713 1187.16C825.398 1185.57 826.137 1183.94 826.822 1182.36C834.574 1163.32 842.748 1144.49 851.291 1125.83C855.984 1115.54 866.162 1111.48 875.602 1115.86C883.195 1119.39 888.891 1129.68 883.301 1140.59C881.719 1143.7 880.348 1146.97 878.924 1150.19C872.701 1164.32 866.215 1178.35 860.783 1192.85C898.594 1198.07 936.615 1201.55 974.689 1203.87C974.689 1201.76 973.213 1200.34 972.211 1198.76C947.953 1160.26 925.33 1120.87 904.184 1080.58C881.191 1036.71 860.203 991.881 841.693 945.949C841.113 944.473 840.744 942.943 840.27 941.467C838.529 941.045 836.789 941.309 835.049 941.625C820.916 944.051 806.73 946.266 792.65 948.955C778.939 951.592 765.176 954.176 751.728 958.025C754.312 963.193 758.004 967.676 760.008 973.213C766.019 989.982 764.227 1005.8 755.895 1021.36C751.729 1029.16 745.506 1035.07 739.178 1040.82C736.119 1043.61 732.111 1045.3 728.473 1047.41L614.355 1112.8Z" fill="#131F2A"/>
<path d="M985.025 1218.59C999.369 1240.89 1014.45 1262.67 1029.9 1284.19C1031.01 1285.72 1032.49 1287.09 1032.75 1289.14C1031.48 1289.09 1030.32 1289.25 1029.22 1289.88C1016.14 1297.37 1003.01 1304.75 989.877 1312.24C971.314 1322.84 952.699 1333.39 934.189 1344.09C926.596 1348.47 918.686 1352.32 911.566 1357.49C899.332 1366.35 893.162 1377.95 895.852 1393.35C896.379 1396.2 895.377 1397.67 893.215 1398.88C880.4 1406.16 867.639 1413.44 854.824 1420.72C841.852 1428.05 828.932 1435.54 815.854 1442.65C812.426 1444.55 809.42 1447.77 804.938 1447.29C801.932 1430 802.406 1412.65 804.094 1395.3C809.895 1336.97 827.086 1281.55 847.178 1226.87C849.709 1219.96 852.609 1213.15 855.299 1206.3C898.383 1212.47 941.625 1216.37 985.025 1218.59Z" fill="#131F2A"/>
<path d="M1125.62 1220.48C1120.18 1229.19 1114.54 1237.73 1108.11 1245.8C1106.31 1245.9 1104.79 1246.8 1103.26 1247.64C1085.01 1258.14 1066.82 1268.68 1048.46 1279.02C1045.3 1280.81 1042.45 1283.4 1038.66 1283.98C1023.73 1263.78 1009.55 1243 995.73 1222.07C995.15 1221.17 994.729 1220.22 994.254 1219.27C995.994 1219.27 997.734 1219.27 999.527 1219.32C1030.69 1220.59 1061.86 1221.01 1093.03 1220.7C1103.94 1220.59 1114.8 1220.54 1125.62 1220.48Z" fill="#131F2A"/>
<path d="M1225.49 1125.62C1231.08 1125.62 1236.57 1127.09 1242.21 1126.56C1248.7 1125.93 1254.97 1124.72 1261.14 1122.61C1265.47 1132.1 1270.27 1141.38 1273.69 1151.24C1270.27 1151.77 1267.73 1154.04 1264.83 1155.67C1239.31 1170.18 1213.84 1184.73 1188.32 1199.23C1186.95 1200.02 1185.47 1200.66 1185.15 1202.45C1183.31 1202.66 1181.51 1203.29 1179.67 1202.82C1189.69 1186.37 1199.76 1169.96 1209.67 1153.46C1215.16 1144.28 1220.64 1135.16 1225.49 1125.62Z" fill="#131F2A"/>
<path d="M1281.29 1147.45C1279.97 1146.76 1279.39 1145.5 1278.81 1144.23C1275.59 1137.11 1272.37 1129.94 1269.16 1122.82C1268.53 1121.45 1267.63 1119.97 1268.84 1118.44C1276.8 1115.07 1282.82 1109.16 1287.98 1102.52C1299.22 1088.02 1303.07 1071.62 1300.22 1053.53C1299.96 1052 1299.43 1050.47 1299.74 1048.83C1305.02 1046.99 1309.97 1044.4 1315.88 1044.51C1323.37 1044.62 1330.17 1046.62 1336.08 1050.94C1344.78 1057.32 1351.48 1065.18 1353.37 1076.36C1355.43 1088.33 1351.53 1098.35 1343.78 1107.26C1338.71 1113.06 1332.54 1117.23 1325.9 1120.92C1312.4 1128.41 1299.01 1136.11 1285.61 1143.81C1283.92 1144.71 1281.97 1145.39 1281.29 1147.45Z" fill="#131F2A"/>
<path d="M833.625 927.545C834.152 925.277 832.887 923.432 832.201 921.533C817.752 883.037 805.043 844.014 795.867 803.883C789.275 775.09 784.371 746.033 783.791 716.397C783.475 701.42 784.424 686.549 787.852 671.941C790.383 661.289 794.127 651.111 800.666 642.147C801.984 640.354 802.406 638.561 802.143 636.293C800.613 624.006 807.416 612.563 818.701 608.027C830.25 603.334 843.381 606.867 850.605 617.15C852.926 620.473 855.51 621.949 859.359 622.688C873.123 625.324 885.832 630.861 898.119 637.348C899.965 638.35 901.863 639.246 903.762 640.248C919.424 649.477 934.295 659.865 948.375 671.309C949.061 671.836 949.852 672.152 950.643 672.627C951.592 673.629 952.488 674.736 953.596 675.58C975.27 693.51 995.414 712.969 1014.66 733.43C1017.67 736.594 1020.3 740.18 1023.94 742.711C1027 747.668 1031.48 751.465 1035.18 755.895C1042.72 764.912 1050.47 773.772 1058.17 782.684C1061.28 786.27 1061.38 786.322 1064.39 782.684C1075.99 768.551 1087.86 754.682 1100.2 741.182C1133.16 705.006 1167.96 670.834 1208.51 643.043C1227.29 630.176 1247.01 619.154 1269.05 612.721C1283.55 608.502 1298.27 606.604 1313.24 610.031C1332.97 614.514 1347.26 626.115 1356.91 643.623C1363.34 655.33 1366.72 667.986 1368.83 681.065C1369.09 682.805 1369.2 684.545 1369.93 686.18C1370.04 689.133 1370.04 692.139 1370.36 695.092C1371.41 705.797 1371.25 716.449 1370.62 727.154C1369.14 753.311 1364.71 778.992 1358.91 804.516C1354.69 822.973 1349.42 841.166 1344.15 859.307C1340.67 869.748 1337.29 880.242 1333.65 890.578C1328.91 904.078 1323.95 917.525 1319.1 930.973C1316.83 935.297 1315.09 939.779 1314.09 944.578C1312.56 945.897 1312.14 947.848 1311.4 949.588C1308.23 957.129 1305.12 964.67 1302.01 972.211C1301.27 973.951 1300.27 975.639 1300.27 977.643C1299.11 978.539 1298.74 979.91 1298.16 981.176C1292.57 993.621 1286.88 1006.01 1281.23 1018.46C1280.18 1018.25 1279.23 1017.77 1278.54 1016.98C1275.06 1013.19 1270.58 1010.87 1266.1 1008.54C1260.93 1005.86 1255.18 1005.06 1249.86 1003.01C1258.93 983.76 1267.58 964.301 1275.7 944.684C1276.44 942.943 1277.49 941.256 1277.38 939.252C1280.13 935.139 1282.08 930.709 1282.61 925.752C1285.03 923.695 1285.35 920.584 1286.4 917.895C1290.25 907.875 1294.47 897.961 1297.37 887.572C1297.69 886.939 1298.11 886.359 1298.32 885.727C1314.62 839.057 1328.33 791.754 1333.92 742.447C1335.23 730.74 1336.03 719.033 1335.34 707.221C1335.81 700.154 1334.97 693.193 1333.92 686.232C1332.81 678.586 1330.91 671.098 1327.75 663.979C1321.42 649.74 1311.35 643.359 1295.84 643.729C1290.88 643.834 1286.09 644.625 1281.29 645.943C1264.83 650.426 1249.96 658.336 1235.67 667.459C1206.62 685.969 1180.99 708.697 1156.57 732.797C1138.96 750.199 1122.29 768.551 1106.1 787.377C1099.25 795.393 1092.6 803.619 1085.85 811.688C1084.54 813.27 1083.53 814.641 1085.17 816.75C1091.02 824.186 1096.77 831.779 1102.52 839.268C1103.15 840.322 1103.73 841.43 1104.42 842.379C1126.83 872.965 1147.97 904.5 1168.17 936.615C1173.5 945.053 1178.3 953.859 1184.1 962.033C1184.47 963.826 1185.63 965.197 1186.47 966.674C1190.64 973.793 1194.8 980.859 1198.97 987.979C1199.5 988.875 1200.08 989.772 1200.5 990.721C1201.34 992.619 1200.71 994.201 1199.02 995.256C1197.44 996.258 1195.91 995.783 1194.8 994.465C1193.91 993.41 1193.22 992.197 1192.48 990.984C1188.11 983.813 1184.26 976.324 1179.46 969.416C1178.82 968.15 1178.24 966.885 1177.56 965.672C1157.94 933.029 1137.27 901.072 1115.33 869.906C1108.79 860.625 1102.57 851.027 1095.03 842.432C1091.23 835.734 1086.12 829.934 1081.53 823.764C1079 820.389 1078.79 820.389 1076.26 823.658C1068.56 833.625 1060.86 843.592 1053.26 853.717C1048.04 860.731 1042.61 867.586 1038.02 875.074C1032.54 881.719 1027.9 888.943 1022.99 896.01C1019.41 901.178 1015.56 906.188 1012.61 911.83C1008.97 916.365 1005.59 921.111 1002.96 926.332C1000.9 928.283 999.58 930.814 998.051 933.188C985.184 953.121 972.633 973.213 960.557 993.621C959.66 995.15 958.816 996.68 957.762 998.051C953.332 1003.64 947.426 1005.86 940.465 1004.59C933.662 1003.38 929.232 999.158 927.018 992.619C925.172 986.977 926.49 981.861 929.443 977.01C936.193 965.883 942.996 954.809 949.693 943.682C952.646 938.725 956.232 934.137 958.658 928.811C962.244 924.17 965.777 919.477 968.203 914.098C976.746 901.969 984.973 889.682 992.988 877.184C993.885 876.076 994.834 875.074 995.625 873.914C1006.22 858.674 1017.04 843.539 1028.32 828.773C1036.39 818.174 1044.62 807.68 1052.79 797.186C1056.64 792.229 1056.69 792.281 1052.74 787.641C1048.46 782.525 1044.3 777.357 1039.87 772.348C1032.12 763.541 1024.73 754.418 1016.3 746.244C1015.66 745.4 1015.08 744.557 1014.35 743.766C998.156 726.205 981.281 709.33 963.352 693.51C955.072 686.18 946.846 678.797 937.723 672.522C936.562 670.676 934.611 669.727 932.924 668.514C925.119 662.977 917.684 656.912 909.088 652.588C908.561 652.113 908.086 651.586 907.506 651.217C893.479 642.727 878.977 635.344 863.051 631.072C856.67 629.385 856.723 629.332 855.826 635.766C854.297 647.051 848.338 655.119 837.475 658.652C826.717 662.186 816.855 659.865 809.104 651.375C805.307 647.209 804.885 648.686 802.934 652.113C802.301 653.168 801.773 654.275 801.246 655.383C795.445 667.459 793.072 680.326 791.807 693.51C789.539 717.662 791.912 741.551 795.603 765.334C801.035 800.086 810.105 833.994 820.811 867.428C827.191 887.309 833.941 907.084 841.852 926.438C839.109 926.596 836.262 926.385 833.625 927.545Z" fill="#CC3C4A"/>
<path d="M772.084 1468.44C772.453 1464.7 771.293 1461.16 770.555 1457.53C767.707 1442.81 766.811 1427.94 767.285 1412.96C768.709 1368.19 778.834 1325 791.332 1282.29C798.768 1257.03 807.416 1232.14 816.803 1207.51C817.646 1205.24 819.07 1203.08 818.701 1200.5C822.023 1196.65 822.92 1191.69 824.607 1187.1C825.293 1185.52 826.031 1183.89 826.717 1182.3C834.469 1163.27 842.643 1144.44 851.186 1125.77C855.879 1115.49 866.057 1111.43 875.496 1115.81C883.09 1119.34 888.785 1129.62 883.195 1140.54C881.613 1143.65 880.242 1146.92 878.818 1150.14C872.596 1164.27 866.109 1178.3 860.678 1192.8C858.516 1197.18 856.723 1201.71 855.246 1206.4C852.504 1213.26 849.656 1220.06 847.125 1226.97C827.033 1281.66 809.789 1337.03 804.041 1395.4C802.301 1412.75 801.879 1430.1 804.885 1447.4C806.203 1455.79 808.365 1463.85 812.373 1471.39C818.438 1482.89 828.035 1488.59 841.008 1488.48C849.551 1488.43 857.672 1486.32 865.635 1483.47C881.086 1477.93 895.219 1469.71 908.824 1460.64C935.771 1442.65 959.713 1420.98 982.705 1398.25C996.943 1384.17 1010.6 1369.51 1023.68 1354.38C1033.22 1343.36 1042.51 1332.12 1051.84 1320.94C1054.53 1317.73 1054.53 1317.57 1052.05 1314.14C1048.52 1309.34 1045.04 1304.49 1041.35 1299.8C1038.55 1296.26 1036.44 1292.1 1032.86 1289.2C1032.59 1287.14 1031.12 1285.77 1030.01 1284.24C1014.56 1262.72 999.422 1240.95 985.131 1218.64C988.242 1218.85 991.406 1217.9 994.412 1219.32C994.887 1220.27 995.309 1221.22 995.889 1222.12C1009.71 1243.11 1023.89 1263.83 1038.81 1284.03C1044.88 1292.15 1050.89 1300.38 1057.06 1308.45C1059.22 1311.29 1059.91 1311.19 1062.28 1308.5C1062.76 1307.97 1063.07 1307.34 1063.55 1306.81C1074.41 1293.26 1084.8 1279.39 1094.92 1265.31C1099.51 1258.93 1104.57 1252.86 1108.27 1245.85C1114.65 1237.83 1120.34 1229.29 1125.77 1220.54C1129.31 1215.95 1133 1211.47 1135 1205.93C1136.95 1204.88 1137.8 1202.87 1138.96 1201.08C1158.63 1170.91 1177.24 1140.12 1195.01 1108.79C1203.71 1116.07 1213 1122.35 1224.39 1124.82C1224.86 1124.93 1225.23 1125.35 1225.71 1125.67C1220.85 1135.16 1215.37 1144.34 1209.88 1153.51C1199.97 1170.02 1189.9 1186.42 1179.88 1202.87C1177.35 1206.72 1174.82 1210.57 1172.23 1214.37C1171.44 1215.53 1170.7 1216.63 1170.76 1218.11C1168.86 1219.22 1167.86 1221.17 1166.75 1222.91C1141.38 1261.3 1114.65 1298.79 1085.91 1334.76C1081.63 1340.14 1081.69 1340.19 1086.7 1345.2C1096.56 1358.02 1107.42 1369.99 1118.23 1381.96C1137.48 1403.16 1157.63 1423.46 1179.3 1442.23C1199.92 1460.11 1221.54 1476.62 1245.8 1489.27C1258.29 1495.81 1271.32 1501.08 1285.4 1503.04C1298.85 1504.93 1311.71 1503.72 1322.95 1495.07C1331.02 1488.9 1336.08 1480.57 1339.72 1471.24C1344.3 1459.53 1346.36 1447.24 1347.05 1434.74C1348.79 1402.63 1344.62 1371.04 1337.55 1339.77C1334.13 1322.37 1329.8 1305.18 1324.48 1288.25C1322.74 1280.23 1319.99 1272.48 1317.52 1264.68C1313.03 1250.54 1308.39 1236.46 1302.75 1222.7C1301.48 1216.95 1298.37 1211.78 1297.21 1205.98C1299.59 1205.35 1301.91 1204.66 1304.38 1204.88C1305.65 1209.2 1306.97 1213.52 1309.18 1217.48C1309.39 1218.32 1309.55 1219.22 1309.82 1220.01C1317.09 1240.1 1324 1260.35 1330.17 1280.87C1330.59 1282.18 1330.91 1283.61 1332.02 1284.56C1332.02 1285.4 1331.86 1286.35 1332.07 1287.14C1336.55 1302.86 1340.51 1318.68 1344.3 1334.55C1346.31 1345.62 1348.42 1356.64 1350.21 1367.72C1353.11 1385.6 1354.85 1403.63 1354.64 1421.72C1354.43 1438.96 1352.85 1456.1 1346.73 1472.45C1342.72 1483.1 1337.24 1492.8 1328.12 1500.03C1317.09 1508.78 1304.44 1511.95 1290.62 1510.95C1275.7 1509.84 1261.83 1505.04 1248.38 1498.66C1225.86 1487.95 1205.72 1473.56 1186.52 1457.84C1167.86 1442.6 1150.24 1426.2 1133.53 1408.85C1116.07 1390.76 1099.2 1372.2 1083.27 1352.74C1077.57 1345.78 1077.47 1345.78 1071.72 1352.58C1052.68 1374.89 1033.49 1397.09 1012.87 1417.97C988.137 1443.02 962.244 1466.7 933.293 1486.85C915.785 1499.03 897.486 1509.73 877.289 1516.9C865.107 1521.23 852.609 1524.23 839.637 1523.76C810.422 1522.76 790.119 1508.1 778.096 1481.68C776.619 1478.51 775.564 1475.14 774.299 1471.87C773.719 1470.6 773.613 1469.07 772.084 1468.44Z" fill="#CC3C4A"/>
<path d="M983.707 1203.87C980.701 1203.82 977.695 1203.82 974.637 1203.77C974.637 1201.66 973.16 1200.23 972.158 1198.65C947.9 1160.16 925.277 1120.76 904.131 1080.47C881.139 1036.6 860.15 991.775 841.641 945.844C841.061 944.367 840.691 942.838 840.217 941.361C842.221 939.516 844.752 940.518 847.019 940.043C865.529 986.607 886.781 1031.85 909.984 1076.26C932.344 1119.08 956.549 1160.84 982.441 1201.66C982.969 1202.29 983.338 1203.13 983.707 1203.87Z" fill="#CC3C4A"/>
<path d="M1291.1 1191.27C1286.82 1181.2 1282.61 1171.12 1278.33 1161.05C1276.91 1157.68 1275.54 1154.36 1273.64 1151.19C1270.21 1141.33 1265.47 1132.05 1261.09 1122.56C1263.67 1121.19 1266.21 1119.76 1268.79 1118.39C1267.58 1119.97 1268.47 1121.4 1269.11 1122.77C1272.32 1129.94 1275.54 1137.06 1278.76 1144.18C1279.34 1145.44 1279.92 1146.71 1281.23 1147.39C1280.55 1149.66 1281.92 1151.4 1282.76 1153.3C1288.09 1165.59 1293.47 1177.82 1298 1190.43C1295.84 1191.74 1293.42 1190.95 1291.1 1191.27Z" fill="#CC3C4A"/>
<path d="M646.418 1152.3C649.002 1148.19 649.529 1143.23 651.744 1138.96C652.219 1138.01 652.693 1137.11 653.221 1136.16C666.352 1112.48 691.875 1100.2 718.875 1104.68C744.135 1108.85 764.174 1128.99 769.131 1154.94C770.502 1162.11 770.027 1169.23 769.553 1176.4C768.234 1180.99 766.916 1185.57 765.598 1190.11C761.959 1196.91 758.215 1203.66 752.625 1209.09C734.959 1226.39 713.918 1232.3 690.293 1225.39C666.826 1218.53 652.482 1202.19 646.945 1178.35C645.416 1171.86 644.994 1165.17 646.154 1158.52C646.471 1156.46 646.84 1154.41 646.418 1152.3ZM722.83 1162.69C735.223 1162.58 745.559 1152.14 745.242 1140.06C744.926 1127.78 734.537 1117.65 722.408 1117.71C710.068 1117.81 700.154 1127.94 700.207 1140.49C700.26 1152.93 710.279 1162.79 722.83 1162.69Z" fill="#CC3C4A"/>
<path d="M833.625 927.545C836.262 926.385 839.109 926.648 841.852 926.227C845.596 925.646 849.34 925.014 853.137 924.486C877.764 921.059 902.496 918.422 927.281 916.418C940.887 915.311 954.492 913.887 968.15 913.887C965.725 919.266 962.139 923.959 958.605 928.6C956.127 928.652 953.701 928.652 951.223 928.863C925.857 930.762 900.492 932.871 875.232 936.035C865.846 937.195 856.406 938.039 847.125 939.99C844.857 940.465 842.326 939.463 840.322 941.309C838.582 940.887 836.842 941.15 835.102 941.467C820.969 943.893 806.783 946.107 792.703 948.797C778.992 951.434 765.229 954.018 751.781 957.867C751.412 957.867 751.043 957.867 750.727 957.92C714.182 966.727 678.27 977.484 644.098 993.568C629.648 1000.37 615.727 1008.18 603.018 1017.98C593.947 1025 585.721 1032.91 579.867 1042.87C573.486 1053.74 571.535 1065.13 575.859 1077.21C577.811 1082.69 580.606 1087.75 584.191 1092.39C591.574 1101.88 600.486 1109.74 610.559 1116.28C611.35 1116.91 612.141 1117.65 612.984 1118.23C625.272 1126.25 638.033 1133.47 651.744 1138.9C649.529 1143.18 649.002 1148.08 646.418 1152.25C630.65 1145.71 615.885 1137.48 601.857 1127.83C599.537 1126.25 597.217 1124.67 594.897 1123.08C589.254 1118.07 583.506 1113.22 578.391 1107.63C570.586 1099.09 564.311 1089.65 561.199 1078.42C556.242 1060.65 560.883 1044.77 571.219 1030.17C579.762 1018.09 590.941 1008.76 603.018 1000.48C620.947 988.189 640.406 978.855 660.498 970.84C683.016 961.875 706.166 954.545 729.633 948.428C731.162 948.006 732.586 947.426 734.115 946.951C746.402 944.209 758.742 941.361 771.029 938.672C790.383 934.453 809.895 931.078 829.459 927.914C830.83 927.703 832.201 927.65 833.625 927.545Z" fill="#FF4654"/>
<path d="M1318.94 930.867C1335.55 934.031 1352.21 937.143 1368.83 940.307C1376.79 943.102 1385.12 944.367 1393.24 946.371C1421.03 953.332 1448.46 961.506 1475.09 972.158C1498.61 981.545 1521.44 992.408 1541.74 1007.86C1551.45 1015.19 1560.3 1023.42 1567.32 1033.49C1583.35 1056.64 1582.82 1080.84 1565.79 1103.26C1556.19 1115.86 1544.06 1125.67 1530.88 1134.21C1514.16 1145.02 1496.34 1153.67 1477.83 1160.95C1475.88 1161.69 1473.77 1162.16 1472.13 1163.64C1470.97 1163.9 1469.71 1164.11 1468.6 1164.53C1440.23 1175.29 1411.07 1183.41 1381.54 1190.16C1368.25 1193.22 1354.85 1195.91 1341.51 1198.81C1329.01 1200.34 1316.62 1202.77 1304.17 1204.88C1301.7 1204.66 1299.32 1205.4 1297 1205.98C1290.78 1206.77 1284.5 1207.67 1278.23 1208.36C1261.35 1210.31 1244.48 1212.36 1227.6 1214.05C1214.89 1215.32 1202.13 1216.21 1189.37 1217.16C1183.1 1217.64 1176.77 1217.74 1170.49 1218.06C1170.44 1216.58 1171.18 1215.47 1171.97 1214.31C1174.55 1210.52 1177.08 1206.67 1179.62 1202.82C1181.51 1203.29 1183.31 1202.66 1185.1 1202.45C1186.84 1203.03 1188.58 1202.82 1190.32 1202.71C1199.6 1202.03 1208.88 1201.45 1218.11 1200.5C1236.94 1198.55 1255.76 1196.49 1274.54 1194.17C1280.07 1193.48 1285.72 1193.33 1291.04 1191.32C1293.36 1191.01 1295.79 1191.74 1298 1190.53C1308.02 1189.79 1317.78 1187.68 1327.64 1186C1348.89 1182.36 1370.04 1178.09 1390.97 1172.81C1413.44 1167.7 1435.48 1161.11 1457.16 1153.41C1457.95 1153.14 1458.69 1152.56 1459.42 1152.14C1464.49 1151.24 1469.02 1148.87 1473.77 1147.03C1494.18 1138.85 1514 1129.46 1531.93 1116.54C1541.95 1109.32 1550.97 1100.99 1557.62 1090.39C1564.47 1079.42 1566.63 1067.66 1562.62 1055.16C1560.09 1047.2 1555.51 1040.34 1549.92 1034.12C1537 1019.78 1520.96 1009.76 1504.09 1000.9C1481.31 988.98 1457.31 980.016 1432.79 972.369C1404.47 963.51 1375.68 956.443 1346.57 950.801C1344.88 950.432 1343.2 949.957 1341.51 949.641C1332.28 947.9 1323.11 946.16 1313.88 944.42C1314.98 939.674 1316.67 935.191 1318.94 930.867Z" fill="#FF4654"/>
<path d="M765.598 1190.16C766.916 1185.57 768.234 1180.99 769.553 1176.45C787.799 1180.72 806.203 1184.2 824.713 1187.21C823.025 1191.8 822.129 1196.75 818.807 1200.6C800.877 1197.81 783.211 1194.17 765.598 1190.16Z" fill="#FF4654"/>
<path d="M1281.08 1018.3C1283.55 1021.2 1286.19 1024.05 1288.51 1027.11C1292.36 1032.12 1295.47 1037.55 1297.42 1043.61C1298 1045.41 1298.16 1047.46 1299.69 1048.83C1299.38 1050.42 1299.96 1051.95 1300.17 1053.53C1303.01 1071.56 1299.16 1088.02 1287.93 1102.52C1282.76 1109.16 1276.75 1115.07 1268.79 1118.44C1266.21 1119.81 1263.67 1121.24 1261.09 1122.61C1254.97 1124.77 1248.64 1125.98 1242.21 1126.56C1236.57 1127.09 1231.08 1125.67 1225.49 1125.62C1225.07 1125.35 1224.65 1124.88 1224.18 1124.77C1212.84 1122.29 1203.56 1116.07 1194.8 1108.74C1194.49 1108.37 1194.17 1108 1193.85 1107.63C1193.33 1106.95 1192.8 1106.26 1192.22 1105.58C1181.67 1093.18 1176.29 1078.95 1176.66 1062.49C1176.77 1057.38 1178.09 1052.42 1178.61 1047.41C1180.2 1043.35 1181.78 1039.34 1183.36 1035.28C1184.31 1033.86 1185.26 1032.38 1186.26 1030.96C1197.91 1013.71 1213.89 1003.75 1234.88 1002.43C1237.52 1002.01 1239.73 1002.22 1242.21 1002.43C1244.69 1002.53 1247.17 1002.69 1249.59 1002.8C1254.97 1004.85 1260.67 1005.64 1265.84 1008.33C1270.32 1010.65 1274.8 1012.97 1278.28 1016.77C1279.12 1017.67 1280.02 1018.09 1281.08 1018.3ZM1276.07 1038.6C1276.01 1026.26 1265.84 1016.14 1253.5 1016.14C1241.31 1016.14 1230.93 1026.42 1230.82 1038.6C1230.71 1051 1241.16 1061.38 1253.76 1061.28C1266.1 1061.23 1276.12 1051 1276.07 1038.6Z" fill="#FF4654"/>
<path d="M1277.23 939.094C1258.4 936.563 1239.52 934.242 1220.59 932.555C1219.06 932.397 1217.53 931.975 1215.95 931.711C1215.11 930.815 1214.05 930.076 1213.42 929.074C1210.31 924.012 1213.68 918.106 1219.85 918.264C1224.91 918.369 1229.92 919.16 1234.93 919.635C1236.67 919.793 1238.41 919.846 1240.15 919.951C1240.84 920.109 1241.53 920.268 1242.21 920.373C1255.61 922.166 1269.05 923.326 1282.39 925.647C1281.92 930.604 1279.97 934.981 1277.23 939.094Z" fill="#FF4654"/>
<path d="M1012.55 911.619C1027.48 911.356 1042.4 911.092 1057.32 910.881C1059.22 910.828 1061.23 910.775 1063.07 911.092C1066.66 911.777 1069.08 914.783 1069.03 918.106C1068.98 921.48 1066.5 924.328 1062.91 925.014C1062.23 925.172 1061.54 925.172 1060.8 925.172C1041.5 925.488 1022.2 925.805 1002.9 926.068C1005.54 920.9 1008.91 916.154 1012.55 911.619Z" fill="#FF4654"/>
<path d="M1125.62 1220.48C1114.75 1220.54 1103.89 1220.59 1093.03 1220.7C1061.86 1221.01 1030.64 1220.64 999.527 1219.32C997.787 1219.27 996.047 1219.27 994.254 1219.27C991.248 1217.85 988.084 1218.8 984.973 1218.59C941.572 1216.37 898.277 1212.47 855.246 1206.35C856.723 1201.66 858.568 1197.18 860.73 1192.75C898.541 1197.97 936.562 1201.45 974.637 1203.77C977.643 1203.82 980.648 1203.82 983.707 1203.87C985.816 1204.14 987.873 1204.56 989.982 1204.61C1022.78 1205.98 1055.64 1206.98 1088.49 1206.67C1102.2 1206.51 1115.86 1206.09 1129.57 1205.77C1131.31 1205.72 1133.05 1205.82 1134.84 1205.88C1132.84 1211.41 1129.2 1215.95 1125.62 1220.48Z" fill="#FF4654"/>
<path d="M853.295 621.475C856.248 625.852 854.719 630.914 855.457 635.66C854.508 646.945 846.914 655.963 835.787 658.969C823.5 662.291 811.477 656.174 806.783 648.053C804.727 645.574 803.725 642.621 802.564 639.668C802.828 639.457 802.934 639.246 802.881 638.982C802.828 638.719 802.723 638.613 802.67 638.613C799.506 628.225 805.201 612.721 819.756 607.553C834.311 602.332 848.391 610.348 853.295 621.475Z" fill="#FF4654"/>
<path d="M722.83 1162.69C710.279 1162.79 700.26 1152.93 700.207 1140.49C700.154 1127.94 710.016 1117.81 722.408 1117.71C734.537 1117.6 744.926 1127.78 745.242 1140.06C745.559 1152.14 735.17 1162.58 722.83 1162.69Z" fill="#FEFEF7"/>
<path d="M1062.07 990.352C1101.99 990.51 1134 1022.89 1133.68 1062.7C1133.42 1102.25 1101.15 1134.16 1061.49 1134C1021.68 1133.89 989.613 1101.46 989.877 1061.6C990.193 1021.99 1022.41 990.193 1062.07 990.352Z" fill="#FEFEF7"/>
<path d="M1276.07 1038.6C1276.12 1051 1266.1 1061.23 1253.76 1061.28C1241.16 1061.38 1230.71 1051 1230.82 1038.6C1230.93 1026.42 1241.31 1016.14 1253.5 1016.14C1265.89 1016.19 1276.01 1026.26 1276.07 1038.6Z" fill="#FEFEF7"/>
</g>
<defs>
<clipPath id="clip0_2_2">
<rect width="2160" height="2160" fill="white"/>
</clipPath>
</defs>
</svg>
